<?xml version="1.0" standalone="no"?>
<!DOCTYPE svg PUBLIC "-//W3C//DTD SVG 1.1//EN" "http://www.w3.org/Graphics/SVG/1.1/DTD/svg11.dtd">
<svg xmlns="http://www.w3.org/2000/svg">
<defs >
<font id="Epilogue" horiz-adv-x="1123" ><font-face
    font-family="Epilogue ExtraBold"
    units-per-em="2000"
    panose-1="0 0 0 0 0 0 0 0 0 0"
    ascent="1580"
    descent="-470"
    alphabetic="0" />
<glyph unicode=" " horiz-adv-x="500" />
<glyph unicode="!" horiz-adv-x="613" d="M457 1473L385 435H174L101 1473H457ZM281 -31Q206 -31 154 22T101 150Q101 224 153 277T281 330Q356 330 408 277T461 150Q461 75 409 22T281 -31Z" />
<glyph unicode="&quot;" horiz-adv-x="865" d="M346 1475L320 948H127L101 1475H346ZM735 1475L709 948H517L491 1475H735Z" />
<glyph unicode="#" horiz-adv-x="1698" d="M568 1475H873L508 0H202L568 1475ZM1152 1475H1456L1091 0H787L1152 1475ZM186 1079H1627L1574 859H134L186 1079ZM99 614H1540L1487 394H47L99 614Z" />
<glyph unicode="$" horiz-adv-x="1167" d="M511 1475H651V0H511V1475ZM582 194Q487 194 397 216T235 282T119 394T76 550Q76 553 76 557T76 564H430Q430 561 430 558T430 552Q430 502 473 480T592 458Q626 458 661 465T721 490T746 535Q746 578 694 596T521 634Q451
645 376 667T235 726T130 820T90 960Q90 1073 158 1148T338 1263T586 1302Q714 1302 825 1259T1006 1136T1076 946Q1076 944 1076 941T1076 934H726Q726 937 726 940T726 945Q726 979 705 1000T651 1031T584 1041Q555 1041 521 1035T463 1013T439 967Q439 941 466
923T543 894T656 872Q718 863 792 844T935 790T1047 695T1091 545Q1091 449 1047 382T928 274T764 213T582 194Z" />
<glyph unicode="%" horiz-adv-x="1319" d="M1286 1357L170 31L48 136L1163 1461L1286 1357ZM338 958Q262 958 196 989T90 1080T50 1219Q50 1300 90 1359T196 1450T338 1482Q415 1482 482 1450T590 1359T631 1219Q631 1139 591 1080T483 990T338 958ZM338 1102Q371
1102 401 1114T450 1152T470 1219Q470 1262 451 1288T401 1325T338 1337Q306 1337 277 1326T230 1288T211 1219Q211 1178 229 1152T277 1114T338 1102ZM973 4Q898 4 832 35T726 125T685 265Q685 346 725 405T832 495T973 527Q1051 527 1118 496T1226 405T1267 265Q1267
184 1226 126T1118 36T973 4ZM973 147Q1006 147 1036 159T1085 197T1105 265Q1105 307 1086 333T1036 371T973 383Q942 383 913 371T865 333T846 265Q846 223 864 197T912 159T973 147Z" />
<glyph unicode="&amp;" horiz-adv-x="1503" d="M627 -25Q471 -25 345 22T145 160T71 385Q71 491 127 572T290 727T551 884Q679 954 735 1015T791 1140Q791 1178 775 1204T731 1244T666 1259Q631 1259 602 1245T555 1204T537 1140Q537 1085 576 1020T672 885L1170
293Q1206 250 1239 239T1295 228Q1319 228 1346 235T1386 246V0Q1379 -3 1343 -12T1247 -22Q1185 -22 1116 4T1001 85L455 729Q410 782 361 849T279 995T245 1156Q245 1247 297 1322T444 1443T664 1489Q790 1489 881 1444T1022 1323T1072 1160Q1072 1056 1028 976T899
826T692 687Q547 604 473 544T398 401Q398 351 430 312T515 250T631 228Q744 228 824 264T963 362Q1020 421 1056 494T1093 691H1382Q1382 563 1351 468T1270 302T1162 175Q1069 85 933 30T627 -25Z" />
<glyph unicode="&apos;" horiz-adv-x="370" d="M311 1475L283 948H87L59 1475H311Z" />
<glyph unicode="(" horiz-adv-x="893" d="M661 -467Q637 -450 582 -404T460 -275T331 -70T228 220T187 606Q187 824 227 992T330 1282T460 1487T582 1616T661 1679L846 1485Q817 1462 760 1404T643 1242T540 982T498 606Q498 387 540 231T642 -28T760 -190T846
-273L661 -467Z" />
<glyph unicode=")" horiz-adv-x="910" d="M255 -467L71 -273Q99 -249 156 -191T273 -29T376 231T418 606Q418 825 376 981T274 1241T156 1403T71 1485L255 1679Q279 1663 334 1617T456 1488T585 1283T688 992T729 606Q729 388 689 221T586 -69T456 -274T334 -403T255
-467Z" />
<glyph unicode="*" horiz-adv-x="903" d="M580 1181L713 1038L570 944L445 1121L321 944L178 1038L312 1181L114 1243L187 1384L365 1311L356 1486H536L526 1311L704 1384L778 1243L580 1181Z" />
<glyph unicode="+" horiz-adv-x="1319" d="M1054 416H767V189H545V416H257V635H545V863H767V635H1054V416Z" />
<glyph unicode="," horiz-adv-x="629" d="M186 -341L139 -258Q195 -232 243 -188T320 -96T350 -15Q350 2 345 18T332 44H412Q401 18 372 -7T282 -32Q217 -32 164 14T111 145Q111 225 165 277T301 330Q394 330 450 264T507 100Q507 0 461 -86T342 -237T186 -341Z" />
<glyph unicode="-" horiz-adv-x="914" d="M71 458V675H810V458H71Z" />
<glyph unicode="." horiz-adv-x="606" d="M303 -31Q228 -31 176 22T123 150Q123 224 175 277T304 330Q378 330 430 277T483 150Q483 75 431 22T303 -31Z" />
<glyph unicode="/" horiz-adv-x="860" d="M843 1563L310 -155H25L557 1563H843Z" />
<glyph unicode="0" horiz-adv-x="1212" d="M599 -25Q451 -25 348 37T181 205T88 447T59 734Q59 884 88 1021T181 1266T348 1436T599 1499Q746 1499 849 1437T1016 1267T1109 1022T1139 734Q1139 584 1110 448T1016 205T849 37T599 -25ZM599 246Q657 246 697 292T758
445T779 734Q779 917 758 1024T697 1176T599 1222Q542 1222 501 1177T439 1024T418 734Q418 551 439 445T501 292T599 246Z" />
<glyph unicode="1" horiz-adv-x="933" d="M742 1476V0H388V1151Q374 1142 331 1127T230 1099T110 1082V1356Q172 1362 231 1381T335 1426T394 1476H742Z" />
<glyph unicode="2" horiz-adv-x="1267" d="M78 0V290Q87 304 132 342T243 433T380 540T511 644Q581 699 647 759T756 886T799 1028Q799 1115 757 1171T622 1227Q546 1227 503 1193T441 1099T423 959H66Q66 1127 132 1248T323 1434T627 1499Q803 1499 921 1436T1098
1265T1157 1025Q1157 934 1123 858T1033 717T916 602T798 508Q704 438 639 388T538 308T492 264H1142V0H78Z" />
<glyph unicode="3" horiz-adv-x="1284" d="M871 778Q957 775 1023 730T1127 608T1164 435Q1164 314 1109 209T935 40T631 -25Q470 -25 365 16T199 130T113 292T88 482Q88 483 88 484T88 486H444Q444 485 444 484T444 482Q444 389 468 338T534 267T635 246Q710
246 758 291T807 445Q807 495 795 532T759 595T694 632T595 644H545V888H595Q653 888 693 903T758 943T795 1003T807 1074Q807 1153 760 1190T641 1227Q558 1227 501 1180T444 1011H88Q88 1106 118 1193T212 1349T381 1458T634 1499Q822 1499 938 1439T1109 1286T1164
1093Q1164 1008 1127 938T1024 825T871 778Z" />
<glyph unicode="4" horiz-adv-x="1244" d="M663 0V267H28V508L554 1476H1011V528H1180V267H1011V0H663ZM290 382L197 528H663V1252L733 1232L290 382Z" />
<glyph unicode="5" horiz-adv-x="1254" d="M1101 1213H515L461 861Q464 870 482 886T532 918T611 946T721 957Q927 957 1035 828T1143 490Q1143 322 1083 207T905 34T610 -25Q465 -25 366 18T205 131T117 285T90 451Q90 453 90 454T90 456H443Q443 455 443 454T443
451Q449 359 487 303T616 246Q674 246 711 272T767 350T785 482Q785 588 749 649T625 710Q576 710 539 692T479 646T446 591L108 679L230 1475H1101V1213Z" />
<glyph unicode="6" horiz-adv-x="1290" d="M638 -25Q449 -25 332 61T160 309T105 693Q105 877 139 1025T241 1279T413 1442T653 1499Q795 1499 887 1451T1031 1331T1103 1187T1124 1064Q1124 1061 1124 1060T1124 1056H793Q793 1059 793 1060T793 1064Q793 1085
787 1113T766 1168T723 1211T652 1228Q584 1228 541 1168T478 990T458 705L409 704Q414 754 450 805T561 892T750 928Q892 928 985 867T1124 705T1171 487Q1171 341 1112 225T934 42T638 -25ZM642 246Q699 246 736 270T793 342T812 463Q812 534 793 582T737 656T651
682Q600 682 561 658T499 586T477 469Q477 401 498 351T555 274T642 246Z" />
<glyph unicode="7" horiz-adv-x="1111" d="M701 1214V1212H64V1475H1074V1232Q978 1162 908 1062T790 839T713 578T672 294T659 0H301Q301 158 314 306T355 589T430 841T544 1052T701 1214Z" />
<glyph unicode="8" horiz-adv-x="1335" d="M665 -25Q482 -25 360 36T176 199T114 424Q114 536 161 610T274 726T396 777Q349 788 291 825T192 933T150 1115Q150 1228 216 1314T398 1450T665 1499Q815 1499 931 1450T1113 1315T1179 1115Q1179 1004 1138 934T1039
826T933 777Q990 767 1055 726T1168 611T1215 424Q1215 301 1154 199T970 36T665 -25ZM665 246Q718 246 760 271T826 340T850 446Q850 506 827 551T762 621T665 647Q610 647 568 622T503 551T479 446Q479 385 503 341T570 271T665 246ZM665 908Q743 908 788 952T834
1070Q834 1121 813 1156T753 1209T665 1227Q616 1227 578 1209T517 1156T495 1070Q495 997 541 953T665 908Z" />
<glyph unicode="9" horiz-adv-x="1252" d="M611 -26Q468 -26 376 22T233 142T160 286T139 409Q139 412 139 413T139 417H471Q471 415 471 414T471 409Q471 388 476 360T497 305T540 262T612 245Q681 245 723 305T785 483T805 768L854 769Q850 720 813 668T702
581T513 545Q372 545 279 606T139 768T93 986Q93 1132 152 1248T329 1431T626 1498Q814 1498 931 1412T1103 1164T1158 780Q1158 596 1124 448T1022 194T851 31T611 -26ZM612 791Q664 791 703 815T764 887T786 1004Q786 1073 766 1122T708 1199T621 1227Q565 1227
527 1203T470 1131T451 1010Q451 940 470 891T526 817T612 791Z" />
<glyph unicode=":" horiz-adv-x="607" d="M303 -31Q228 -31 176 22T123 150Q123 224 175 277T304 330Q378 330 430 277T483 150Q483 75 431 22T303 -31ZM304 706Q229 706 177 759T124 887Q124 961 176 1014T305 1067Q379 1067 431 1014T484 887Q484 812 432 759T304 706Z" />
<glyph unicode=";" horiz-adv-x="641" d="M197 -92L150 -9Q206 17 254 61T331 153T361 234Q361 251 356 267T343 293H423Q412 267 383 242T293 217Q228 217 175 263T122 394Q122 474 176 526T312 579Q405 579 461 513T518 349Q518 249 472 163T353 12T197 -92ZM310
705Q235 705 183 758T130 886Q130 960 182 1013T311 1066Q385 1066 437 1013T490 886Q490 811 438 758T310 705Z" />
<glyph unicode="&lt;" horiz-adv-x="1319" d="M1000 44L318 414V648L1000 1019V727L450 488V574L1000 337V44Z" />
<glyph unicode="=" horiz-adv-x="1319" d="M1046 603H268V823H1046V603ZM1046 236H268V455H1046V236Z" />
<glyph unicode="&gt;" horiz-adv-x="1319" d="M318 1019L1000 648V414L318 44V337L868 574V488L318 727V1019Z" />
<glyph unicode="?" horiz-adv-x="1148" d="M434 425Q434 520 462 594T535 728T624 841Q658 881 687 920T733 1000T751 1085Q751 1164 710 1204T589 1245Q503 1245 454 1187T405 1009H92Q92 1179 159 1284T338 1437T584 1486Q719 1486 826 1440T997 1300T1061 1065Q1061
980 1032 914T957 796T863 697Q799 635 751 573T702 425H434ZM583 -31Q507 -31 455 22T402 150Q402 224 454 277T583 330Q657 330 710 277T763 150Q763 75 710 22T583 -31Z" />
<glyph unicode="@" horiz-adv-x="1998" d="M1605 103Q1541 66 1426 38T1168 -8T882 -25Q633 -25 449 49T163 270T62 636Q62 831 139 990T354 1263T676 1438T1073 1500Q1278 1500 1427 1450T1674 1314T1820 1122T1868 904Q1868 774 1822 665T1690 475T1490 349T1239
304Q1197 304 1157 314T1090 348T1061 414Q1061 415 1061 417T1061 420Q1042 376 986 343T845 310Q729 310 656 355T548 478T513 651Q513 793 571 906T733 1084T969 1150Q1051 1150 1101 1122T1151 1057L1171 1128H1406L1269 581Q1268 575 1267 565T1265 552Q1265
516 1277 501T1323 485Q1402 485 1457 519T1548 614T1599 749T1616 906Q1616 1032 1554 1125T1368 1271T1058 1323Q890 1323 754 1274T519 1135T368 917T315 631Q315 459 390 353T595 200T893 152Q1004 152 1117 166T1325 204T1480 256L1605 103ZM883 486Q940 486
971 508T1014 567Q1016 572 1022 598T1038 662T1058 740T1076 815T1090 869Q1095 894 1095 905Q1095 929 1081 954T1008 980Q933 980 879 930T796 803T767 640Q767 567 797 527T883 486Z" />
<glyph unicode="A" horiz-adv-x="1370" d="M48 0L403 1476H969L1323 0H957L686 1261H688L413 0H48ZM330 326V599H1044V326H330Z" />
<glyph unicode="B" horiz-adv-x="1305" d="M730 1475Q890 1475 991 1430T1139 1304T1187 1117Q1187 1010 1145 934T1040 815T910 767Q977 765 1050 731T1174 622T1225 421Q1225 304 1178 209T1023 57T729 0H116V1475H730ZM456 795L339 891H630Q734 891 782 937T831
1056Q831 1105 811 1138T747 1188T638 1205H295L456 1370V795ZM659 271Q761 271 811 319T861 443Q861 483 848 516T808 573T742 610T653 623H339L456 719V106L295 271H659Z" />
<glyph unicode="C" horiz-adv-x="1440" d="M1364 548Q1364 450 1327 349T1213 164T1021 27T745 -25Q534 -25 384 72T155 342T76 738Q76 962 155 1133T384 1402T745 1499Q920 1499 1044 1437T1243 1276T1346 1066Q1364 994 1364 927H1006Q1006 958 1002 984Q992
1053 959 1105T872 1188T745 1218Q657 1218 589 1168T480 1011T439 738Q439 571 479 464T588 306T745 255Q807 255 855 278T937 341T988 435T1006 548H1364Z" />
<glyph unicode="D" horiz-adv-x="1372" d="M116 0V1475H629Q777 1475 899 1421T1111 1269T1248 1036T1296 740Q1296 580 1248 445T1111 210T900 55T629 0H116ZM474 105L313 270H581Q679 270 758 327T886 489T934 740Q934 886 886 990T759 1149T581 1205H313L474
1370V105Z" />
<glyph unicode="E" horiz-adv-x="1159" d="M314 1205L475 1370V777L395 875H932V605H395L475 702V105L314 270H1043V0H116V1475H1043V1205H314Z" />
<glyph unicode="F" horiz-adv-x="1148" d="M311 1205L472 1370V766L362 853H968V582H362L472 676V0H116V1475H1057V1205H311Z" />
<glyph unicode="G" horiz-adv-x="1459" d="M719 -25Q541 -25 395 61T162 316T76 733Q76 980 167 1151T413 1410T758 1499Q918 1499 1029 1449T1210 1319T1311 1153T1343 994Q1343 991 1343 988T1343 982H996Q996 985 996 988T996 994Q996 1036 981 1076T934 1148T859
1199T758 1218Q681 1218 608 1174T487 1024T439 733Q439 593 466 501T537 354T638 278T752 255Q833 255 889 282T979 349T1021 427V503H752V755H1337V0H1161L1127 163Q1120 143 1094 111T1019 48T897 -4T719 -25Z" />
<glyph unicode="H" horiz-adv-x="1440" d="M1324 1475V0H966V695L1127 599H313L474 690V0H116V1475H474V775L313 869H1127L966 776V1475H1324Z" />
<glyph unicode="I" horiz-adv-x="579" d="M114 0V1475H466V0H114Z" />
<glyph unicode="J" horiz-adv-x="1194" d="M566 -25Q375 -25 262 39T98 219T48 486Q48 504 48 522T48 558H403Q403 550 403 539T403 518Q403 454 415 394T463 294T566 255Q635 255 668 295T711 400T722 540V1475H1078V489Q1078 385 1054 293T974 129T817 16T566 -25Z" />
<glyph unicode="K" horiz-adv-x="1371" d="M728 705L739 978L1329 0H940L543 705L699 684L444 338L473 561V0H116V1475H473V724L407 755L925 1475H1301L728 705Z" />
<glyph unicode="L" horiz-adv-x="1080" d="M116 0V1475H474V106L313 287H1011V0H116Z" />
<glyph unicode="M" horiz-adv-x="1903" d="M1174 1475H1776V0H1437V1276L1443 1272L1185 0H725L461 1275L467 1278V0H128V1475H730L967 151H934L1174 1475Z" />
<glyph unicode="N" horiz-adv-x="1514" d="M464 0H116V1475H665L1116 116L1051 102V1475H1398V0H845L394 1354L464 1368V0Z" />
<glyph unicode="O" horiz-adv-x="1528" d="M764 -25Q624 -25 500 24T280 171T131 410T76 739Q76 925 130 1067T278 1305T497 1450T764 1499Q906 1499 1030 1450T1250 1305T1398 1067T1452 739Q1452 553 1398 411T1248 171T1028 25T764 -25ZM764 256Q848 256 922
301T1042 453T1089 739Q1089 920 1042 1024T921 1173T764 1218Q681 1218 607 1174T486 1025T439 739Q439 558 485 453T606 302T764 256Z" />
<glyph unicode="P" horiz-adv-x="1266" d="M474 0H116V1475H651Q820 1475 942 1409T1131 1230T1198 974Q1198 832 1131 715T942 528T651 458H474V0ZM474 564L313 727H614Q678 727 728 755T808 839T838 974Q838 1055 809 1106T730 1181T614 1205H313L474 1370V564Z" />
<glyph unicode="Q" horiz-adv-x="1528" d="M602 18H904Q904 -26 937 -55T1016 -100T1103 -124T1160 -134L1060 -371Q1045 -371 995 -363T879 -333T749 -269T644 -156T602 18ZM764 -25Q624 -25 500 24T280 171T131 410T76 739Q76 925 130 1067T278 1305T497 1450T764
1499Q906 1499 1030 1450T1250 1305T1398 1067T1452 739Q1452 553 1398 411T1248 171T1028 25T764 -25ZM764 256Q848 256 922 301T1042 453T1089 739Q1089 920 1042 1024T921 1173T764 1218Q681 1218 607 1174T486 1025T439 739Q439 558 485 453T606 302T764 256Z"
/>
<glyph unicode="R" horiz-adv-x="1303" d="M116 0V1475H742Q984 1475 1101 1367T1219 1060Q1219 946 1176 867T1069 744T944 695Q1007 691 1062 665T1152 580T1187 423Q1187 355 1187 292T1187 160Q1187 109 1195 65T1219 0H862Q848 23 840 66T831 160Q831 220
831 271T831 382Q831 465 792 512T658 559H371L465 670V0H116ZM465 702L371 829H662Q717 829 760 853T827 921T852 1026Q852 1106 801 1156T658 1206H362L465 1317V702Z" />
<glyph unicode="S" horiz-adv-x="1271" d="M633 -25Q472 -25 346 27T148 181T76 437Q76 451 76 464T76 492H433Q433 479 433 468T433 444Q433 357 483 306T636 255Q737 255 792 286T848 388Q848 439 802 480T676 555T498 620Q390 654 296 710T144 855T86 1075Q86
1209 158 1303T354 1448T632 1499Q791 1499 915 1449T1112 1301T1184 1059Q1184 1044 1184 1031T1184 1004H828Q828 1011 828 1022T828 1042Q828 1123 783 1171T636 1220Q537 1220 483 1184T429 1076Q429 1024 471 987T586 920T752 856Q885 810 985 754T1140 614T1195
399Q1195 263 1124 169T925 25T633 -25Z" />
<glyph unicode="T" horiz-adv-x="1191" d="M1127 1205H620L773 1370V0H417V1370L572 1205H64V1475H1127V1205Z" />
<glyph unicode="U" horiz-adv-x="1369" d="M1253 529Q1253 251 1101 113T684 -25Q420 -25 268 113T116 529Q116 566 116 606T116 691V1475H474V637Q474 605 474 576T474 521Q474 387 521 321T684 255Q799 255 847 321T896 521V1475H1253V529Z" />
<glyph unicode="V" horiz-adv-x="1333" d="M400 -2L48 1475H443L675 210H660L891 1475H1286L936 -2H400Z" />
<glyph unicode="W" horiz-adv-x="1943" d="M275 0L65 1475H432L574 65L524 68L752 1475H1192L1419 68L1369 65L1511 1475H1878L1668 0H1122L954 1237H990L822 0H275Z" />
<glyph unicode="X" horiz-adv-x="1372" d="M535 873L532 585L52 1475H453L748 822H623L915 1475H1317L841 585L838 873L1331 0H929L617 637H753L441 0H40L535 873Z" />
<glyph unicode="Y" horiz-adv-x="1314" d="M1267 1475L834 507V0H478V507L48 1475H425L727 678H586L888 1475H1267Z" />
<glyph unicode="Z" horiz-adv-x="1190" d="M482 271H1099V0H82V232L711 1207L713 1205H128V1475H1108V1246L482 273V271Z" />
<glyph unicode="[" horiz-adv-x="906" d="M768 1657V1401H460V-181H768V-437H142V1657H768Z" />
<glyph unicode="\" horiz-adv-x="868" d="M25 1563H310L843 -155H557L25 1563Z" />
<glyph unicode="]" horiz-adv-x="906" d="M135 1657H762V-437H135V-181H444V1401H135V1657Z" />
<glyph unicode="^" horiz-adv-x="1319" d="M158 851L527 1533H762L1133 851H840L602 1401H688L450 851H158Z" />
<glyph unicode="_" horiz-adv-x="1323" d="M27 -346V-111H1307V-346H27Z" />
<glyph unicode="`" horiz-adv-x="740" d="M626 1194H401L125 1475H389L626 1194Z" />
<glyph unicode="a" horiz-adv-x="1268" d="M467 -23Q352 -23 262 13T120 120T68 290Q68 405 133 476T302 585T522 634Q690 650 751 662T813 706Q813 707 813 707T813 708Q813 756 763 786T624 816Q531 816 484 783T436 681H84Q84 812 156 901T352 1037T627 1083Q771
1083 894 1040T1094 909T1171 685Q1171 664 1171 643T1171 601V249Q1171 207 1173 168T1184 95Q1195 59 1211 34T1238 0H889Q881 8 866 31T839 84Q826 124 820 161T814 251L890 199Q862 130 799 80T649 4T467 -23ZM569 236Q631 236 688 261T782 341T819 488V561L909
481Q843 458 759 443T595 419Q510 410 468 390T426 324Q426 280 462 258T569 236Z" />
<glyph unicode="b" horiz-adv-x="1345" d="M789 -24Q663 -24 559 45T392 231T330 494Q330 498 330 502T330 512L468 515Q468 512 468 509T468 503Q468 433 500 383T584 306T691 279Q780 279 849 341T918 537Q918 671 850 730T691 790Q637 790 586 765T501 691T468
571L330 580Q330 726 392 839T558 1017T789 1082Q918 1082 1031 1019T1215 835T1286 537Q1286 352 1217 228T1035 40T789 -24ZM111 0V1563H468V0H111Z" />
<glyph unicode="c" horiz-adv-x="1270" d="M656 -25Q473 -25 339 47T131 245T58 535Q58 700 131 823T338 1014T656 1083Q792 1083 896 1044T1069 941T1175 800T1211 648Q1211 646 1211 644T1211 639H858Q858 645 858 650T855 661Q847 695 825 727T762 781T653
803Q584 803 532 772T450 682T420 535Q420 451 449 388T531 290T653 255Q722 255 765 276T831 334T857 416H1211Q1211 340 1176 263T1071 120T897 15T656 -25Z" />
<glyph unicode="d" horiz-adv-x="1340" d="M556 -25Q423 -25 310 38T127 227T58 537Q58 713 129 835T314 1020T556 1083Q683 1083 787 1018T953 839T1015 580Q1015 575 1015 570T1015 559L877 558Q877 561 877 564T877 571Q877 642 844 690T759 764T653 790Q564
790 495 731T426 537Q426 403 495 341T653 279Q710 279 761 306T844 383T877 504L1015 496Q1015 351 954 233T788 45T556 -25ZM877 0V1563H1234V0H877Z" />
<glyph unicode="e" horiz-adv-x="1305" d="M251 429V652H916L886 600Q886 608 886 616T886 632Q886 677 863 721T790 795T659 825Q579 825 524 792T440 694T411 538Q411 443 438 376T523 273T669 237Q724 237 763 246T827 269T864 301T880 336H1232Q1226 267 1184
203T1069 87T891 5T654 -25Q473 -25 339 45T132 241T58 529Q58 695 133 819T342 1013T654 1083Q837 1083 970 1013T1175 814T1247 513Q1247 486 1246 464T1243 429H251Z" />
<glyph unicode="f" horiz-adv-x="906" d="M238 0V792H21V1062H238V1114Q238 1231 271 1312T359 1445T480 1526T615 1566T743 1577Q815 1577 848 1569T894 1556V1284Q882 1288 851 1293T784 1299Q729 1299 692 1286T634 1246T604 1185T594 1105V1062H871V792H594V0H238Z" />
<glyph unicode="g" horiz-adv-x="1276" d="M861 146Q963 135 1039 107T1158 24T1201 -126Q1201 -234 1130 -309T926 -422T605 -461Q325 -461 169 -381T12 -168Q12 -133 20 -104T42 -53L363 -99Q359 -104 355 -116T350 -148Q350 -192 426 -215T613 -239Q691 -239
748 -228T838 -196T870 -148Q870 -110 831 -96T741 -77L339 -32Q225 -19 149 33T73 180Q73 238 106 285T182 364T253 403L419 317Q402 314 381 297T359 255Q359 230 387 212T488 185L861 146ZM952 1062H1264L1138 657Q1102 541 1040 452T875 312T615 261Q449 261
327 309T139 448T72 665Q72 792 139 885T323 1031T585 1083Q690 1083 780 1050T926 961T983 834L929 815L952 1062ZM613 514Q669 514 712 532T780 584T805 669Q805 718 780 752T712 805T613 823Q559 823 515 805T446 752T420 667Q420 618 445 584T514 532T613 514Z"
/>
<glyph unicode="h" horiz-adv-x="1311" d="M854 0V372Q854 390 854 424T854 492T854 547Q854 658 817 721T672 784Q602 784 557 756T489 676T467 552L383 623Q383 762 439 865T595 1026T827 1083Q1023 1083 1116 969T1210 650Q1210 598 1210 524T1210 348V0H854ZM111
0V1563H467V0H111Z" />
<glyph unicode="i" horiz-adv-x="534" d="M91 0V1062H444V0H91ZM267 1211Q187 1211 127 1253T66 1372Q66 1450 126 1491T267 1533Q348 1533 408 1492T468 1372Q468 1294 408 1253T267 1211Z" />
<glyph unicode="j" horiz-adv-x="550" d="M-36 -460Q-66 -460 -94 -459T-142 -456V-194Q-124 -197 -96 -199T-36 -202Q6 -202 33 -191T74 -162T95 -124T101 -83V1062H456V-91Q456 -157 439 -222T371 -341T222 -427T-36 -460ZM282 1211Q201 1211 141 1253T81 1372Q81
1450 141 1491T282 1533Q362 1533 422 1492T482 1372Q482 1295 422 1253T282 1211Z" />
<glyph unicode="k" horiz-adv-x="1182" d="M111 0V1563H449V689L384 724L754 1062H1188L656 584L729 713L1174 0H801L495 527L589 525L414 365L449 516V0H111Z" />
<glyph unicode="l" horiz-adv-x="592" d="M477 1563V0H126V1563H477Z" />
<glyph unicode="m" horiz-adv-x="1896" d="M777 0V392Q777 449 777 492T777 564Q777 605 773 643T755 714T713 765T635 784Q592 784 561 765T508 713T477 634T467 536L386 615Q386 756 434 861T573 1024T789 1083Q925 1083 999 1025T1102 870T1131 660Q1131 616
1131 540T1131 354V0H777ZM111 0V1062H467V0H111ZM1439 0V391Q1439 449 1439 492T1439 565Q1439 610 1434 649T1415 719T1373 767T1297 784Q1254 784 1223 765T1171 713T1141 634T1131 539L1050 618Q1050 758 1098 862T1236 1024T1452 1083Q1587 1083 1661 1025T1766
872T1796 663Q1796 617 1796 543T1796 360V0H1439Z" />
<glyph unicode="n" horiz-adv-x="1311" d="M854 0V432Q854 467 854 498T854 554Q854 614 841 666T789 751T672 784Q605 784 559 755T490 671T467 544L385 615Q385 757 444 862T606 1025T835 1083Q968 1083 1050 1029T1171 879T1210 658Q1210 605 1210 538T1210
399V0H854ZM111 0V1062H467V0H111Z" />
<glyph unicode="o" horiz-adv-x="1304" d="M652 -24Q476 -24 343 46T134 242T58 530Q58 694 133 818T342 1013T652 1083Q828 1083 961 1013T1170 819T1246 530Q1246 367 1171 242T962 47T652 -24ZM652 251Q724 251 776 286T856 383T884 530Q884 615 856 677T776
773T652 807Q581 807 529 773T448 677T420 530Q420 446 448 384T528 286T652 251Z" />
<glyph unicode="p" horiz-adv-x="1345" d="M111 -437V1062H468V-437H111ZM789 -25Q663 -25 559 44T392 231T330 494Q330 498 330 502T330 512L468 515Q468 512 468 509T468 503Q468 433 500 383T584 306T691 279Q780 279 849 341T918 537Q918 671 850 730T691
790Q637 790 586 765T501 691T468 571L330 580Q330 726 392 839T558 1017T789 1083Q918 1083 1031 1020T1215 835T1286 537Q1286 352 1217 227T1035 39T789 -25Z" />
<glyph unicode="q" horiz-adv-x="1340" d="M556 -25Q423 -25 310 38T127 227T58 537Q58 713 129 835T314 1020T556 1083Q683 1083 787 1018T953 839T1015 580Q1015 575 1015 570T1015 559L877 558Q877 561 877 564T877 571Q877 642 844 690T759 764T653 790Q564
790 495 731T426 537Q426 403 495 341T653 279Q710 279 761 306T844 383T877 504L1015 496Q1015 351 954 233T788 45T556 -25ZM877 -437V1062H1234V-437H877Z" />
<glyph unicode="r" horiz-adv-x="958" d="M111 0V1062H468V682L401 730Q415 809 445 874T522 986T633 1058T777 1083Q842 1083 876 1074T920 1060L867 745Q858 750 827 760T750 771Q671 771 617 746T530 677T483 581T468 475V0H111Z" />
<glyph unicode="s" horiz-adv-x="1132" d="M564 -25Q469 -25 380 -3T218 63T102 175T58 331Q58 334 58 338T58 345H412Q412 342 412 339T412 333Q412 283 455 261T574 239Q608 239 643 246T703 271T728 316Q728 359 677 377T503 415Q433 426 358 448T217 507T112
601T72 741Q72 854 140 929T320 1044T568 1083Q696 1083 807 1040T988 917T1058 727Q1058 725 1058 722T1058 715H708Q708 718 708 721T708 726Q708 760 687 781T633 812T566 822Q537 822 503 816T445 794T421 748Q421 722 449 704T526 675T638 653Q700 644 775
625T918 571T1029 476T1073 326Q1073 230 1029 163T911 55T746 -6T564 -25Z" />
<glyph unicode="t" horiz-adv-x="987" d="M667 -24Q602 -24 531 -14T399 29T300 125T262 295Q262 318 262 340T262 386V792H21V1062H58Q127 1062 168 1068T229 1098T255 1172T262 1313V1411H620V1062H920V792H620V455Q620 438 620 423T620 391Q620 328 635 286T713
244Q748 244 779 251T825 264V2Q803 -7 762 -15T667 -24Z" />
<glyph unicode="u" horiz-adv-x="1290" d="M483 -21Q370 -21 298 15T185 112T128 250T111 409Q111 445 111 484T111 566V1062H467V625Q467 591 467 561T467 504Q467 443 479 391T526 308T629 276Q696 276 741 313T809 409T833 532L915 452Q915 347 885 261T799
111T664 14T483 -21ZM833 0V1062H1189V0H833Z" />
<glyph unicode="v" horiz-adv-x="1143" d="M1127 1062L816 0H333L16 1062H384L603 95H547L758 1062H1127Z" />
<glyph unicode="w" horiz-adv-x="1674" d="M967 0L770 1062H1021L1224 92L1167 90L1290 1062H1658L1452 0H967ZM222 0L16 1062H384L506 90L451 92L652 1062H903L708 0H222Z" />
<glyph unicode="x" horiz-adv-x="1212" d="M478 592L475 434L24 1062H412L720 592L506 593L814 1062H1194L764 476L740 648L1198 0H808L490 475L733 480L386 0H5L478 592Z" />
<glyph unicode="y" horiz-adv-x="1151" d="M217 -463Q163 -463 122 -460T70 -452V-189Q83 -195 116 -198T188 -201Q233 -201 270 -184T336 -135T379 -58L393 -17L27 1062H399L608 205H568L769 1062H1135L779 -40Q734 -176 670 -270T498 -414T217 -463Z" />
<glyph unicode="z" horiz-adv-x="1049" d="M434 272H993V0H55V256L597 804L606 791H74V1062H980V806L443 260L434 272Z" />
<glyph unicode="{" horiz-adv-x="869" d="M774 1426Q692 1426 657 1384T622 1237V864Q622 768 579 715T474 639T354 614V632Q412 630 474 608T579 532T622 381Q622 335 622 273T622 146Q622 98 622 53T622 -28Q622 -132 657 -170T774 -209V-467Q630 -467 521 -438T349
-336T287 -137Q287 -96 287 -42T287 68Q287 128 287 184T287 285Q287 357 271 403T216 476T109 513V732Q176 743 215 769T271 841T287 960V1350Q287 1478 349 1551T520 1654T774 1685V1426Z" />
<glyph unicode="|" horiz-adv-x="648" d="M169 -280V1554H446V-280H169Z" />
<glyph unicode="}" horiz-adv-x="869" d="M99 1426V1685Q243 1685 352 1655T523 1551T585 1350Q585 1301 585 1252T585 1154Q585 1106 585 1058T585 960Q585 888 602 842T657 769T764 732V513Q696 502 658 476T602 404T585 285V-137Q585 -264 524 -336T353 -437T99
-467V-209Q181 -209 216 -171T251 -28V381Q251 478 294 531T399 607T519 632V614Q461 617 399 639T294 714T251 864Q251 916 251 968T251 1073Q251 1113 251 1154T251 1237Q251 1341 216 1383T99 1426Z" />
<glyph unicode="~" horiz-adv-x="1319" d="M991 728Q991 670 968 613T899 518T780 480Q723 480 686 502T628 543Q606 565 587 579T540 594Q507 594 491 569T475 499H298Q298 558 322 615T394 711T517 750Q568 750 605 728T664 685Q687 665 709 651T756 636Q784
636 799 660T815 728H991Z" />
<glyph unicode="&#xa0;" horiz-adv-x="500" />
<glyph unicode="&#xa1;" horiz-adv-x="613" d="M148 -419L220 619H431L504 -419H148ZM323 1085Q399 1085 452 1032T505 904Q505 830 452 777T323 724Q249 724 197 777T144 904Q144 979 196 1032T323 1085Z" />
<glyph unicode="&#xa2;" horiz-adv-x="1270" d="M575 1475H733V0H575V1475ZM656 187Q473 187 339 259T131 457T58 747Q58 912 131 1035T338 1226T656 1295Q792 1295 896 1256T1069 1153T1175 1012T1211 860Q1211 858 1211 856T1211 851H858Q858 857 858 862T855
873Q847 907 825 939T762 993T653 1015Q584 1015 532 984T450 894T420 747Q420 663 449 600T531 502T653 467Q722 467 765 488T831 546T857 628H1211Q1211 552 1176 475T1071 332T897 227T656 187Z" />
<glyph unicode="&#xa3;" horiz-adv-x="1246" d="M63 554V771H802V554H63ZM902 1094Q888 1121 860 1154T785 1211T671 1235Q603 1235 553 1212T475 1148T448 1053Q448 990 467 941T511 837T555 705T574 507Q574 416 544 338T466 197T367 89T273 16T210 -17L71 187Q87
195 121 220T191 287T252 382T278 502Q278 573 256 638T205 770T154 908T131 1065Q131 1184 195 1280T373 1434T641 1491Q755 1491 837 1465T975 1399T1064 1316T1116 1241L902 1094ZM1145 30Q1126 20 1056 -3T887 -26Q809 -26 746 -8T623 29T490 47Q425 47 366
34T266 5T210 -17L220 17Q234 22 257 53T314 128T390 213T485 283T601 312Q673 312 714 296T790 263T880 247Q937 247 975 263T1025 287L1145 30Z" />
<glyph unicode="&#xa4;" horiz-adv-x="1370" d="M1213 1309L1370 1153L1117 900L960 1056L1213 1309ZM1213 81L960 335L1117 490L1370 237L1213 81ZM203 1309L456 1056L300 900L47 1153L203 1309ZM203 81L47 237L300 490L456 335L203 81ZM701 147Q525 147 392
217T183 413T108 701Q108 865 183 989T391 1184T701 1254Q877 1254 1011 1184T1220 990T1295 701Q1295 538 1220 413T1011 218T701 147ZM701 422Q773 422 825 457T905 554T933 701Q933 786 905 848T825 944T701 978Q631 978 579 944T498 848T469 701Q469 617 497
555T578 457T701 422Z" />
<glyph unicode="&#xa5;" horiz-adv-x="1314" d="M188 499V717H1157V499H188ZM189 176V394H1158V176H189ZM1267 1475L834 507V0H478V507L48 1475H425L727 678H586L888 1475H1267Z" />
<glyph unicode="&#xa6;" horiz-adv-x="648" d="M169 -258V507H446V-258H169ZM169 791V1554H446V791H169Z" />
<glyph unicode="&#xa7;" horiz-adv-x="1287" d="M881 201L667 278Q703 293 753 323T842 401T881 514Q881 564 846 607T749 689T603 767Q498 816 400 873T238 1003T175 1172Q175 1267 229 1337T382 1447T622 1486Q762 1486 859 1447T1008 1333T1059 1147Q1059 1140
1059 1134T1059 1121H760Q760 1128 760 1134T760 1147Q760 1194 749 1224T718 1273T672 1299T614 1307Q549 1307 511 1279T473 1191Q473 1139 516 1097T626 1020T763 954Q839 921 906 886T1024 804T1104 695T1134 546Q1134 482 1108 426T1041 324T958 247T881 201ZM624
-303Q484 -303 387 -264T238 -149T187 36Q187 43 187 49T187 62H486Q486 55 486 49T486 36Q486 -10 497 -41T527 -90T573 -116T632 -124Q697 -124 735 -96T773 -8Q773 44 730 86T619 163T483 229Q407 262 340 298T222 379T142 488T112 637Q112 701 138 757T205
859T288 936T365 982L579 905Q543 891 493 860T404 782T365 669Q365 619 400 576T497 494T643 416Q748 368 846 311T1008 180T1071 11Q1071 -84 1017 -154T863 -264T624 -303Z" />
<glyph unicode="&#xa8;" horiz-adv-x="909" d="M197 1203Q124 1203 69 1241T14 1351Q14 1422 69 1460T197 1498Q270 1498 325 1460T381 1351Q381 1279 326 1241T197 1203ZM711 1203Q638 1203 583 1241T528 1351Q528 1422 583 1460T711 1498Q784 1498 839 1460T894
1351Q894 1279 839 1241T711 1203Z" />
<glyph unicode="&#xa9;" horiz-adv-x="1675" d="M809 28Q604 28 441 115T183 362T88 741Q88 959 182 1118T440 1364T809 1451Q1013 1451 1175 1364T1432 1118T1527 741Q1527 523 1433 363T1176 115T809 28ZM809 147Q976 147 1112 219T1327 425T1407 741Q1407 922
1328 1055T1112 1260T809 1333Q640 1333 504 1261T287 1055T207 741Q207 559 287 426T503 220T809 147ZM811 262Q691 262 585 315T414 473T348 739Q348 886 405 993T567 1160T811 1220Q920 1220 1001 1186T1138 1098T1222 979T1250 857Q1250 850 1250 845T1250
832H993Q993 838 993 839T993 847Q993 874 983 904T951 961T895 1003T811 1020Q709 1020 658 949T607 741Q607 649 630 587T700 494T811 463Q871 463 911 489T972 558T993 650H1250Q1250 529 1192 442T1035 309T811 262Z" />
<glyph unicode="&#xaa;" horiz-adv-x="714" d="M614 1020H471Q463 1034 457 1061T451 1114V1299Q451 1307 451 1314T451 1329Q451 1353 429 1367T361 1381Q310 1381 281 1365T252 1316H115Q115 1398 186 1441T362 1485Q458 1485 526 1447T595 1319Q595 1315 595
1311T595 1302V1141Q595 1094 600 1064T614 1020ZM280 1014Q198 1014 149 1048T100 1147Q100 1196 131 1223T212 1264T316 1283Q392 1292 421 1300T451 1328L490 1261Q487 1244 447 1229T338 1204Q292 1198 270 1189T247 1159Q247 1137 269 1128T328 1119Q372 1119
412 1145T453 1230L499 1180Q499 1129 468 1092T387 1035T280 1014Z" />
<glyph unicode="&#xab;" horiz-adv-x="957" d="M552 885L225 565L552 251H346L23 565L346 885H552ZM934 885L608 565L932 251H727L405 565L729 885H934Z" />
<glyph unicode="&#xac;" horiz-adv-x="1319" d="M826 284V700L987 539H269V757H1043V284H826Z" />
<glyph unicode="&#xad;" horiz-adv-x="698" d="M71 458V675H593V458H71Z" />
<glyph unicode="&#xae;" horiz-adv-x="1189" d="M584 498Q441 498 323 563T136 740T66 988Q66 1125 135 1236T323 1413T584 1478Q729 1478 846 1413T1032 1237T1102 988Q1102 851 1033 740T846 564T584 498ZM584 599Q708 599 799 649T941 787T991 988Q991 1102
941 1189T800 1327T584 1377Q460 1377 369 1327T228 1190T178 988Q178 875 227 787T368 649T584 599ZM389 709V1272H599Q691 1272 740 1233T789 1118Q789 1056 763 1026T698 991Q729 988 747 967T766 911Q766 884 766 843T766 775Q766 748 771 731T780 709H651Q650
714 646 731T642 775Q642 799 642 822T642 869Q642 899 632 913T603 930T559 934H517V709H389ZM517 1041H580Q626 1041 646 1063T667 1114Q667 1140 650 1156T588 1173H517V1041Z" />
<glyph unicode="&#xaf;" horiz-adv-x="875" d="M106 1276V1422H764V1276H106Z" />
<glyph unicode="&#xb0;" horiz-adv-x="652" d="M323 1235Q360 1235 386 1261T413 1324Q413 1362 387 1388T323 1414Q286 1414 260 1388T233 1324Q233 1287 259 1261T323 1235ZM323 1083Q257 1083 202 1116T115 1203T82 1324Q82 1391 114 1445T202 1532T323 1565Q390
1565 444 1533T531 1446T564 1325Q564 1258 531 1204T444 1116T323 1083Z" />
<glyph unicode="&#xb1;" horiz-adv-x="1319" d="M264 115V335H1047V115H264ZM1054 618H767V392H545V618H257V838H545V1065H767V838H1054V618Z" />
<glyph unicode="&#xb2;" horiz-adv-x="1028" d="M71 590V824Q83 835 138 861T269 921T414 988Q472 1015 525 1046T611 1111T645 1181Q645 1223 612 1249T505 1275Q415 1275 382 1240T349 1144H62Q62 1310 179 1401T509 1492Q649 1492 743 1450T884 1339T932 1187Q932
1110 886 1056T773 964T644 896Q601 875 558 856T484 822T446 799H920V590H71Z" />
<glyph unicode="&#xb3;" horiz-adv-x="1042" d="M745 1057Q849 1054 893 997T938 851Q938 781 894 718T756 614T513 573Q384 573 300 602T168 678T99 781T79 893Q79 894 79 894T79 895H366Q366 894 366 894T366 893Q366 828 407 809T516 789Q575 789 613 811T651
877Q651 905 631 922T579 948T512 956H481V1140H512Q548 1140 579 1148T631 1171T651 1212Q651 1246 614 1262T521 1278Q456 1278 411 1259T366 1184H79Q79 1257 122 1328T261 1445T514 1492Q664 1492 757 1456T894 1363T938 1244Q938 1172 893 1116T745 1057Z"
/>
<glyph unicode="&#xb4;" horiz-adv-x="608" d="M42 1194L279 1475H543L267 1194H42Z" />
<glyph unicode="&#xb5;" horiz-adv-x="1276" d="M819 0V1062H1175V0H819ZM819 520L920 440Q920 348 900 265T838 118T736 18T598 -19Q531 -19 500 3T457 48V-437H101V1062H457V552Q457 540 457 528T457 504Q457 443 468 390T513 306T615 274Q682 274 727 308T795
399T819 520Z" />
<glyph unicode="&#xb6;" horiz-adv-x="1426" d="M669 -170V569H645Q500 569 400 607T237 711T147 858T119 1025Q119 1107 144 1186T230 1330T391 1434T645 1473H1284V-170H1041V1255H910V-170H669Z" />
<glyph unicode="&#xb7;" horiz-adv-x="606" d="M303 563Q228 563 176 615T123 744Q123 818 175 871T304 924Q378 924 430 871T483 744Q483 668 431 616T303 563Z" />
<glyph unicode="&#xb8;" horiz-adv-x="942" d="M578 -65Q614 -65 650 -79T712 -127T738 -215Q738 -284 695 -328T585 -392T445 -413Q381 -413 312 -397T214 -360L282 -233Q303 -245 354 -264T457 -283Q512 -283 548 -264T584 -208Q584 -179 566 -166T523 -153Q499
-153 476 -161T441 -186L309 -150L382 0H532L473 -118L460 -117Q470 -93 500 -79T578 -65Z" />
<glyph unicode="&#xb9;" horiz-adv-x="764" d="M552 1474V590H268V1218Q260 1209 227 1196T146 1171T47 1159V1362Q99 1367 146 1384T227 1425T273 1474H552Z" />
<glyph unicode="&#xba;" horiz-adv-x="797" d="M388 1018Q322 1018 264 1046T169 1125T133 1249Q133 1320 169 1372T263 1452T388 1481Q457 1481 516 1453T611 1372T648 1249Q648 1177 612 1126T516 1046T388 1018ZM388 1144Q417 1144 444 1154T488 1188T505 1249Q505
1287 488 1309T444 1343T388 1354Q360 1354 334 1343T292 1310T275 1249Q275 1212 291 1189T334 1155T388 1144Z" />
<glyph unicode="&#xbb;" horiz-adv-x="930" d="M376 885H581L907 565L581 251H376L705 565L376 885ZM23 885H228L554 565L229 251H24L350 565L23 885Z" />
<glyph unicode="&#xbc;" horiz-adv-x="2118" d="M552 1474V590H268V1218Q260 1209 227 1196T146 1171T47 1159V1362Q99 1367 146 1384T227 1425T273 1474H552ZM256 0L1362 1475H1616L510 0H256ZM1629 0V149H1165V325L1551 884H1916V340H2050V149H1916V0H1629ZM1373
226L1300 340H1629V706L1684 690L1373 226Z" />
<glyph unicode="&#xbd;" horiz-adv-x="2136" d="M552 1474V590H268V1218Q260 1209 227 1196T146 1171T47 1159V1362Q99 1367 146 1384T227 1425T273 1474H552ZM256 0L1362 1475H1616L510 0H256ZM1179 0V234Q1191 245 1246 271T1377 331T1522 398Q1580 425 1633
456T1719 521T1753 591Q1753 633 1720 659T1613 685Q1523 685 1490 650T1457 554H1170Q1170 720 1287 811T1617 902Q1757 902 1851 860T1992 749T2040 597Q2040 520 1994 466T1881 374T1752 306Q1709 285 1666 266T1592 232T1554 209H2028V0H1179Z" />
<glyph unicode="&#xbe;" horiz-adv-x="2397" d="M745 1057Q849 1054 893 997T938 851Q938 781 894 718T756 614T513 573Q384 573 300 602T168 678T99 781T79 893Q79 894 79 894T79 895H366Q366 894 366 894T366 893Q366 828 407 809T516 789Q575 789 613 811T651
877Q651 905 631 922T579 948T512 956H481V1140H512Q548 1140 579 1148T631 1171T651 1212Q651 1246 614 1262T521 1278Q456 1278 411 1259T366 1184H79Q79 1257 122 1328T261 1445T514 1492Q664 1492 757 1456T894 1363T938 1244Q938 1172 893 1116T745 1057ZM534
0L1640 1475H1894L788 0H534ZM1908 0V149H1444V325L1830 884H2195V340H2329V149H2195V0H1908ZM1652 226L1579 340H1908V706L1963 690L1652 226Z" />
<glyph unicode="&#xbf;" horiz-adv-x="1148" d="M706 629Q706 535 678 461T605 326T516 213Q482 174 453 135T407 55T389 -31Q389 -110 430 -150T551 -191Q637 -191 686 -133T735 45H1048Q1048 -124 981 -229T802 -383T556 -432Q421 -432 313 -386T142 -246T79
-11Q79 75 108 140T183 258T277 357Q341 419 389 482T438 629H706ZM557 1085Q632 1085 685 1032T738 904Q738 830 685 777T557 724Q483 724 430 777T377 904Q377 979 430 1032T557 1085Z" />
<glyph unicode="&#xc0;" horiz-adv-x="1370" d="M48 0L403 1476H969L1323 0H957L686 1261H688L413 0H48ZM330 326V599H1044V326H330ZM868 1561H631L324 1776H598L868 1561Z" />
<glyph unicode="&#xc1;" horiz-adv-x="1370" d="M48 0L403 1476H969L1323 0H957L686 1261H688L413 0H48ZM330 326V599H1044V326H330ZM505 1561L775 1776H1049L741 1561H505Z" />
<glyph unicode="&#xc2;" horiz-adv-x="1370" d="M48 0L403 1476H969L1323 0H957L686 1261H688L413 0H48ZM330 326V599H1044V326H330ZM324 1559L574 1775H800L1049 1559H826L639 1725H732L546 1559H324Z" />
<glyph unicode="&#xc3;" horiz-adv-x="1370" d="M48 0L403 1476H969L1323 0H957L686 1261H688L413 0H48ZM330 326V599H1044V326H330ZM1042 1794Q1042 1736 1019 1679T950 1583T831 1545Q774 1545 737 1567T679 1609Q657 1630 638 1644T591 1659Q558 1659 542 1634T526
1564H349Q349 1623 373 1680T445 1776T568 1815Q619 1815 656 1793T715 1751Q738 1730 760 1716T807 1701Q835 1701 850 1725T866 1794H1042Z" />
<glyph unicode="&#xc4;" horiz-adv-x="1370" d="M48 0L403 1476H969L1323 0H957L686 1261H688L413 0H48ZM330 326V599H1044V326H330ZM430 1536Q357 1536 302 1574T247 1684Q247 1755 302 1793T430 1831Q503 1831 558 1793T614 1684Q614 1612 559 1574T430 1536ZM944
1536Q871 1536 816 1574T761 1684Q761 1755 816 1793T944 1831Q1017 1831 1072 1793T1127 1684Q1127 1612 1072 1574T944 1536Z" />
<glyph unicode="&#xc5;" horiz-adv-x="1370" d="M48 0L403 1476H969L1323 0H957L686 1261H688L413 0H48ZM330 326V599H1044V326H330ZM686 1668Q724 1668 750 1694T776 1757Q776 1795 750 1821T686 1847Q649 1847 623 1821T597 1757Q597 1720 623 1694T686 1668ZM687
1516Q621 1516 566 1549T479 1636T446 1757Q446 1824 478 1878T565 1965T686 1998Q753 1998 807 1966T895 1879T928 1758Q928 1691 895 1637T808 1549T687 1516Z" />
<glyph unicode="&#xc6;" horiz-adv-x="2027" d="M0 0L841 1475H1911V1205H1210L1326 1321V772L1225 875H1800V605H1233L1326 699V169L1225 270H1911V0H984V1186L1011 1165L387 0H0ZM433 273L503 530H1146V273H433Z" />
<glyph unicode="&#xc7;" horiz-adv-x="1440" d="M1364 548Q1364 450 1327 349T1213 164T1021 27T745 -25Q583 -25 459 34T249 197T120 440T76 738Q76 897 120 1035T249 1277T458 1440T745 1499Q920 1499 1044 1437T1243 1276T1346 1066Q1364 994 1364 927H1006Q1006
958 1002 984Q992 1053 959 1105T872 1188T745 1218Q657 1218 589 1168T480 1011T439 738Q439 571 479 464T588 306T745 255Q807 255 855 278T937 341T988 435T1006 548H1364ZM858 -65Q894 -65 930 -79T992 -127T1017 -215Q1017 -284 975 -328T865 -392T725 -413Q660
-413 592 -397T494 -360L562 -233Q583 -245 633 -264T737 -283Q791 -283 827 -264T864 -208Q864 -179 846 -166T802 -153Q779 -153 756 -161T720 -186L589 -150L662 0H811L752 -118L741 -117Q751 -93 781 -79T858 -65Z" />
<glyph unicode="&#xc8;" horiz-adv-x="1159" d="M314 1205L475 1370V777L395 875H932V605H395L475 702V105L314 270H1043V0H116V1475H1043V1205H314ZM775 1561H538L231 1776H505L775 1561Z" />
<glyph unicode="&#xc9;" horiz-adv-x="1159" d="M314 1205L475 1370V777L395 875H932V605H395L475 702V105L314 270H1043V0H116V1475H1043V1205H314ZM412 1561L682 1776H956L648 1561H412Z" />
<glyph unicode="&#xca;" horiz-adv-x="1159" d="M314 1205L475 1370V777L395 875H932V605H395L475 702V105L314 270H1043V0H116V1475H1043V1205H314ZM231 1559L481 1775H707L956 1559H733L546 1725H639L453 1559H231Z" />
<glyph unicode="&#xcb;" horiz-adv-x="1159" d="M314 1205L475 1370V777L395 875H932V605H395L475 702V105L314 270H1043V0H116V1475H1043V1205H314ZM337 1536Q264 1536 209 1574T154 1684Q154 1755 209 1793T337 1831Q410 1831 465 1793T521 1684Q521 1612 466
1574T337 1536ZM851 1536Q778 1536 723 1574T668 1684Q668 1755 723 1793T851 1831Q924 1831 979 1793T1034 1684Q1034 1612 979 1574T851 1536Z" />
<glyph unicode="&#xcc;" horiz-adv-x="579" d="M114 0V1475H466V0H114ZM472 1561H235L-72 1776H202L472 1561Z" />
<glyph unicode="&#xcd;" horiz-adv-x="579" d="M114 0V1475H466V0H114ZM109 1561L379 1776H653L345 1561H109Z" />
<glyph unicode="&#xce;" horiz-adv-x="579" d="M114 0V1475H466V0H114ZM-72 1559L178 1775H404L653 1559H430L243 1725H336L150 1559H-72Z" />
<glyph unicode="&#xcf;" horiz-adv-x="579" d="M114 0V1475H466V0H114ZM346 1542Q273 1542 218 1580T163 1689Q163 1761 218 1798T346 1836Q419 1836 474 1799T529 1689Q529 1617 474 1580T346 1542ZM752 1542Q679 1542 624 1580T569 1689Q569 1761 624 1798T752
1836Q825 1836 880 1799T935 1689Q935 1617 880 1580T752 1542Z" />
<glyph unicode="&#xd0;" horiz-adv-x="1372" d="M13 655V815H752V655H13ZM116 0V1475H629Q777 1475 899 1421T1111 1269T1248 1036T1296 740Q1296 580 1248 445T1111 210T900 55T629 0H116ZM474 105L313 270H581Q679 270 758 327T886 489T934 740Q934 886 886
990T759 1149T581 1205H313L474 1370V105Z" />
<glyph unicode="&#xd1;" horiz-adv-x="1514" d="M464 0H116V1475H665L1116 116L1051 102V1475H1398V0H845L394 1354L464 1368V0ZM1132 1794Q1132 1736 1109 1679T1040 1583T921 1545Q864 1545 827 1567T769 1609Q747 1630 728 1644T681 1659Q648 1659 632 1634T616
1564H439Q439 1623 463 1680T535 1776T658 1815Q709 1815 746 1793T805 1751Q828 1730 850 1716T897 1701Q925 1701 940 1725T956 1794H1132Z" />
<glyph unicode="&#xd2;" horiz-adv-x="1528" d="M764 -25Q624 -25 500 24T280 171T131 410T76 739Q76 925 130 1067T278 1305T497 1450T764 1499Q906 1499 1030 1450T1250 1305T1398 1067T1452 739Q1452 553 1398 411T1248 171T1028 25T764 -25ZM764 256Q848 256
922 301T1042 453T1089 739Q1089 920 1042 1024T921 1173T764 1218Q681 1218 607 1174T486 1025T439 739Q439 558 485 453T606 302T764 256ZM945 1561H708L401 1776H675L945 1561Z" />
<glyph unicode="&#xd3;" horiz-adv-x="1528" d="M764 -25Q624 -25 500 24T280 171T131 410T76 739Q76 925 130 1067T278 1305T497 1450T764 1499Q906 1499 1030 1450T1250 1305T1398 1067T1452 739Q1452 553 1398 411T1248 171T1028 25T764 -25ZM764 256Q848 256
922 301T1042 453T1089 739Q1089 920 1042 1024T921 1173T764 1218Q681 1218 607 1174T486 1025T439 739Q439 558 485 453T606 302T764 256ZM582 1561L852 1776H1126L818 1561H582Z" />
<glyph unicode="&#xd4;" horiz-adv-x="1528" d="M764 -25Q624 -25 500 24T280 171T131 410T76 739Q76 925 130 1067T278 1305T497 1450T764 1499Q906 1499 1030 1450T1250 1305T1398 1067T1452 739Q1452 553 1398 411T1248 171T1028 25T764 -25ZM764 256Q848 256
922 301T1042 453T1089 739Q1089 920 1042 1024T921 1173T764 1218Q681 1218 607 1174T486 1025T439 739Q439 558 485 453T606 302T764 256ZM401 1559L651 1775H877L1126 1559H903L716 1725H809L623 1559H401Z" />
<glyph unicode="&#xd5;" horiz-adv-x="1528" d="M764 -25Q624 -25 500 24T280 171T131 410T76 739Q76 925 130 1067T278 1305T497 1450T764 1499Q906 1499 1030 1450T1250 1305T1398 1067T1452 739Q1452 553 1398 411T1248 171T1028 25T764 -25ZM764 256Q848 256
922 301T1042 453T1089 739Q1089 920 1042 1024T921 1173T764 1218Q681 1218 607 1174T486 1025T439 739Q439 558 485 453T606 302T764 256ZM1119 1794Q1119 1736 1096 1679T1027 1583T908 1545Q851 1545 814 1567T756 1609Q734 1630 715 1644T668 1659Q635 1659
619 1634T603 1564H426Q426 1623 450 1680T522 1776T645 1815Q696 1815 733 1793T792 1751Q815 1730 837 1716T884 1701Q912 1701 927 1725T943 1794H1119Z" />
<glyph unicode="&#xd6;" horiz-adv-x="1528" d="M764 -25Q624 -25 500 24T280 171T131 410T76 739Q76 925 130 1067T278 1305T497 1450T764 1499Q906 1499 1030 1450T1250 1305T1398 1067T1452 739Q1452 553 1398 411T1248 171T1028 25T764 -25ZM764 256Q848 256
922 301T1042 453T1089 739Q1089 920 1042 1024T921 1173T764 1218Q681 1218 607 1174T486 1025T439 739Q439 558 485 453T606 302T764 256ZM507 1536Q434 1536 379 1574T324 1684Q324 1755 379 1793T507 1831Q580 1831 635 1793T691 1684Q691 1612 636 1574T507
1536ZM1021 1536Q948 1536 893 1574T838 1684Q838 1755 893 1793T1021 1831Q1094 1831 1149 1793T1204 1684Q1204 1612 1149 1574T1021 1536Z" />
<glyph unicode="&#xd7;" horiz-adv-x="1319" d="M435 173L279 328L882 870L1040 716L435 173ZM1040 328L882 171L279 714L434 870L1040 328Z" />
<glyph unicode="&#xd8;" horiz-adv-x="1528" d="M1342 1488L367 -116L186 -12L1159 1592L1342 1488ZM764 -25Q624 -25 500 24T280 171T131 410T76 739Q76 925 130 1067T278 1305T497 1450T764 1499Q906 1499 1030 1450T1250 1305T1398 1067T1452 739Q1452 553
1398 411T1248 171T1028 25T764 -25ZM764 256Q848 256 922 301T1042 453T1089 739Q1089 920 1042 1024T921 1173T764 1218Q681 1218 607 1174T486 1025T439 739Q439 558 485 453T606 302T764 256Z" />
<glyph unicode="&#xd9;" horiz-adv-x="1369" d="M1253 529Q1253 251 1101 113T684 -25Q420 -25 268 113T116 529Q116 566 116 606T116 691V1475H474V637Q474 605 474 576T474 521Q474 387 521 321T684 255Q799 255 847 321T896 521V1475H1253V529ZM866 1561H629L322
1776H596L866 1561Z" />
<glyph unicode="&#xda;" horiz-adv-x="1369" d="M1253 529Q1253 251 1101 113T684 -25Q420 -25 268 113T116 529Q116 566 116 606T116 691V1475H474V637Q474 605 474 576T474 521Q474 387 521 321T684 255Q799 255 847 321T896 521V1475H1253V529ZM503 1561L773
1776H1047L739 1561H503Z" />
<glyph unicode="&#xdb;" horiz-adv-x="1369" d="M1253 529Q1253 251 1101 113T684 -25Q420 -25 268 113T116 529Q116 566 116 606T116 691V1475H474V637Q474 605 474 576T474 521Q474 387 521 321T684 255Q799 255 847 321T896 521V1475H1253V529ZM322 1559L572
1775H798L1047 1559H824L637 1725H730L544 1559H322Z" />
<glyph unicode="&#xdc;" horiz-adv-x="1369" d="M1253 529Q1253 251 1101 113T684 -25Q420 -25 268 113T116 529Q116 566 116 606T116 691V1475H474V637Q474 605 474 576T474 521Q474 387 521 321T684 255Q799 255 847 321T896 521V1475H1253V529ZM428 1536Q355
1536 300 1574T245 1684Q245 1755 300 1793T428 1831Q501 1831 556 1793T612 1684Q612 1612 557 1574T428 1536ZM942 1536Q869 1536 814 1574T759 1684Q759 1755 814 1793T942 1831Q1015 1831 1070 1793T1125 1684Q1125 1612 1070 1574T942 1536Z" />
<glyph unicode="&#xdd;" horiz-adv-x="1314" d="M1267 1475L834 507V0H478V507L48 1475H425L727 678H586L888 1475H1267ZM476 1561L746 1776H1020L712 1561H476Z" />
<glyph unicode="&#xde;" horiz-adv-x="1221" d="M116 0V1473H473V1044L365 1152H653Q800 1152 910 1105T1083 963T1145 728Q1145 587 1083 494T910 353T653 306H365L473 414V0H116ZM473 488L389 576H616Q668 576 707 594T768 646T790 729Q790 780 768 813T707
864T616 881H382L473 976V488Z" />
<glyph unicode="&#xdf;" horiz-adv-x="1282" d="M84 0V946Q84 1086 120 1182T216 1340T352 1435T506 1480T658 1493Q786 1493 893 1449T1065 1321T1130 1119Q1130 1033 1098 981T1033 895Q1008 871 992 849T975 801Q975 776 1003 748T1072 685Q1109 656 1144 616T1201
523T1224 399Q1224 272 1173 180T1009 37T709 -13Q658 -13 609 -7T534 8L579 276Q596 269 631 260T710 251Q793 251 833 280T873 388Q873 421 858 450T819 506T769 560Q722 608 681 665T639 795Q639 860 664 900T721 968Q752 997 775 1027T798 1099Q798 1130 784
1158T738 1204T648 1222Q536 1222 487 1151T437 901V0H84Z" />
<glyph unicode="&#xe0;" horiz-adv-x="1268" d="M467 -23Q352 -23 262 13T120 120T68 290Q68 405 133 476T302 585T522 634Q690 650 751 662T813 706Q813 707 813 707T813 708Q813 756 763 786T624 816Q531 816 484 783T436 681H84Q84 812 156 901T352 1037T627
1083Q771 1083 894 1040T1094 909T1171 685Q1171 664 1171 643T1171 601V249Q1171 207 1173 168T1184 95Q1195 59 1211 34T1238 0H889Q881 8 866 31T839 84Q826 124 820 161T814 251L890 199Q862 130 799 80T649 4T467 -23ZM569 236Q631 236 688 261T782 341T819
488V561L909 481Q843 458 759 443T595 419Q510 410 468 390T426 324Q426 280 462 258T569 236ZM823 1187H598L322 1468H586L823 1187Z" />
<glyph unicode="&#xe1;" horiz-adv-x="1268" d="M467 -23Q352 -23 262 13T120 120T68 290Q68 405 133 476T302 585T522 634Q690 650 751 662T813 706Q813 707 813 707T813 708Q813 756 763 786T624 816Q531 816 484 783T436 681H84Q84 812 156 901T352 1037T627
1083Q771 1083 894 1040T1094 909T1171 685Q1171 664 1171 643T1171 601V249Q1171 207 1173 168T1184 95Q1195 59 1211 34T1238 0H889Q881 8 866 31T839 84Q826 124 820 161T814 251L890 199Q862 130 799 80T649 4T467 -23ZM569 236Q631 236 688 261T782 341T819
488V561L909 481Q843 458 759 443T595 419Q510 410 468 390T426 324Q426 280 462 258T569 236ZM464 1194L701 1475H965L689 1194H464Z" />
<glyph unicode="&#xe2;" horiz-adv-x="1268" d="M467 -23Q352 -23 262 13T120 120T68 290Q68 405 133 476T302 585T522 634Q690 650 751 662T813 706Q813 707 813 707T813 708Q813 756 763 786T624 816Q531 816 484 783T436 681H84Q84 812 156 901T352 1037T627
1083Q771 1083 894 1040T1094 909T1171 685Q1171 664 1171 643T1171 601V249Q1171 207 1173 168T1184 95Q1195 59 1211 34T1238 0H889Q881 8 866 31T839 84Q826 124 820 161T814 251L890 199Q862 130 799 80T649 4T467 -23ZM569 236Q631 236 688 261T782 341T819
488V561L909 481Q843 458 759 443T595 419Q510 410 468 390T426 324Q426 280 462 258T569 236ZM284 1194L534 1475H758L1007 1194H785L598 1411H690L505 1194H284Z" />
<glyph unicode="&#xe3;" horiz-adv-x="1268" d="M467 -23Q352 -23 262 13T120 120T68 290Q68 405 133 476T302 585T522 634Q690 650 751 662T813 706Q813 707 813 707T813 708Q813 756 763 786T624 816Q531 816 484 783T436 681H84Q84 812 156 901T352 1037T627
1083Q771 1083 894 1040T1094 909T1171 685Q1171 664 1171 643T1171 601V249Q1171 207 1173 168T1184 95Q1195 59 1211 34T1238 0H889Q881 8 866 31T839 84Q826 124 820 161T814 251L890 199Q862 130 799 80T649 4T467 -23ZM569 236Q631 236 688 261T782 341T819
488V561L909 481Q843 458 759 443T595 419Q510 410 468 390T426 324Q426 280 462 258T569 236ZM991 1457Q991 1399 968 1342T899 1247T780 1209Q723 1209 686 1231T628 1272Q606 1294 587 1308T540 1323Q507 1323 491 1298T475 1228H298Q298 1287 322 1344T394
1440T517 1479Q568 1479 605 1457T664 1414Q687 1394 709 1380T756 1365Q784 1365 799 1389T815 1457H991Z" />
<glyph unicode="&#xe4;" horiz-adv-x="1268" d="M467 -23Q352 -23 262 13T120 120T68 290Q68 405 133 476T302 585T522 634Q690 650 751 662T813 706Q813 707 813 707T813 708Q813 756 763 786T624 816Q531 816 484 783T436 681H84Q84 812 156 901T352 1037T627
1083Q771 1083 894 1040T1094 909T1171 685Q1171 664 1171 643T1171 601V249Q1171 207 1173 168T1184 95Q1195 59 1211 34T1238 0H889Q881 8 866 31T839 84Q826 124 820 161T814 251L890 199Q862 130 799 80T649 4T467 -23ZM569 236Q631 236 688 261T782 341T819
488V561L909 481Q843 458 759 443T595 419Q510 410 468 390T426 324Q426 280 462 258T569 236ZM386 1203Q313 1203 258 1241T203 1351Q203 1422 258 1460T386 1498Q459 1498 514 1460T570 1351Q570 1279 515 1241T386 1203ZM900 1203Q827 1203 772 1241T717 1351Q717
1422 772 1460T900 1498Q973 1498 1028 1460T1083 1351Q1083 1279 1028 1241T900 1203Z" />
<glyph unicode="&#xe5;" horiz-adv-x="1268" d="M467 -23Q352 -23 262 13T120 120T68 290Q68 405 133 476T302 585T522 634Q690 650 751 662T813 706Q813 707 813 707T813 708Q813 756 763 786T624 816Q531 816 484 783T436 681H84Q84 812 156 901T352 1037T627
1083Q771 1083 894 1040T1094 909T1171 685Q1171 664 1171 643T1171 601V249Q1171 207 1173 168T1184 95Q1195 59 1211 34T1238 0H889Q881 8 866 31T839 84Q826 124 820 161T814 251L890 199Q862 130 799 80T649 4T467 -23ZM569 236Q631 236 688 261T782 341T819
488V561L909 481Q843 458 759 443T595 419Q510 410 468 390T426 324Q426 280 462 258T569 236ZM644 1290Q682 1290 708 1316T734 1379Q734 1417 708 1443T644 1469Q607 1469 581 1443T555 1380Q555 1342 581 1316T644 1290ZM645 1138Q579 1138 524 1171T437 1258T404
1379Q404 1446 436 1500T523 1587T644 1620Q711 1620 765 1588T853 1501T886 1380Q886 1314 853 1259T766 1171T645 1138Z" />
<glyph unicode="&#xe6;" horiz-adv-x="2130" d="M575 -25Q332 -25 200 75T68 332Q68 418 109 476T221 568T381 617T569 632Q693 632 758 635T847 649T871 686Q871 689 871 693T871 700Q871 753 814 785T669 818Q607 818 556 805T474 763T444 689H92Q92 787 139
860T267 984T453 1058T672 1083Q796 1083 903 1047T1084 939Q1100 925 1114 910T1140 878L1004 882Q1082 976 1203 1029T1479 1083Q1662 1083 1794 1012T1999 813T2071 511Q2071 484 2070 463T2068 429H1076L1226 552Q1226 533 1226 515T1229 478Q1237 404 1265
349T1348 265T1489 235Q1544 235 1584 244T1650 269T1689 302T1705 336H2057Q2050 268 2009 204T1893 88T1715 6T1479 -25Q1363 -25 1265 5T1092 91T968 223L1078 240Q1045 142 964 84T780 1T575 -25ZM591 244Q636 244 685 257T778 302T850 388T878 523Q878 532
878 540T878 558L976 455Q892 439 793 434T613 429Q516 429 471 407T426 337Q426 291 468 268T591 244ZM1241 644H1713Q1713 649 1713 654T1710 666Q1702 707 1676 743T1602 803T1483 827Q1421 827 1372 806T1289 743T1241 644Z" />
<glyph unicode="&#xe7;" horiz-adv-x="1270" d="M776 -65Q811 -65 848 -79T910 -127T935 -215Q935 -284 893 -328T783 -392T643 -413Q578 -413 509 -397T411 -360L480 -233Q501 -245 551 -264T655 -283Q709 -283 745 -264T782 -208Q782 -179 764 -166T720 -153Q697
-153 674 -161T638 -186L506 -150L579 0H730L671 -118L657 -117Q667 -93 698 -79T776 -65ZM656 -25Q473 -25 339 47T131 245T58 535Q58 700 131 823T338 1014T656 1083Q792 1083 896 1044T1069 941T1175 800T1211 648Q1211 646 1211 644T1211 639H858Q858 645 858
650T855 661Q847 695 825 727T762 781T653 803Q584 803 532 772T450 682T420 535Q420 451 449 388T531 290T653 255Q722 255 765 276T831 334T857 416H1211Q1211 340 1176 263T1071 120T897 15T656 -25Z" />
<glyph unicode="&#xe8;" horiz-adv-x="1305" d="M251 429V652H916L886 600Q886 608 886 616T886 632Q886 677 863 721T790 795T659 825Q579 825 524 792T440 694T411 538Q411 443 438 376T523 273T669 237Q724 237 763 246T827 269T864 301T880 336H1232Q1226
267 1184 203T1069 87T891 5T654 -25Q473 -25 339 45T132 241T58 529Q58 695 133 819T342 1013T654 1083Q837 1083 970 1013T1175 814T1247 513Q1247 486 1246 464T1243 429H251ZM830 1187H605L329 1468H593L830 1187Z" />
<glyph unicode="&#xe9;" horiz-adv-x="1305" d="M251 429V652H916L886 600Q886 608 886 616T886 632Q886 677 863 721T790 795T659 825Q579 825 524 792T440 694T411 538Q411 443 438 376T523 273T669 237Q724 237 763 246T827 269T864 301T880 336H1232Q1226
267 1184 203T1069 87T891 5T654 -25Q473 -25 339 45T132 241T58 529Q58 695 133 819T342 1013T654 1083Q837 1083 970 1013T1175 814T1247 513Q1247 486 1246 464T1243 429H251ZM472 1194L709 1475H973L697 1194H472Z" />
<glyph unicode="&#xea;" horiz-adv-x="1305" d="M251 429V652H916L886 600Q886 608 886 616T886 632Q886 677 863 721T790 795T659 825Q579 825 524 792T440 694T411 538Q411 443 438 376T523 273T669 237Q724 237 763 246T827 269T864 301T880 336H1232Q1226
267 1184 203T1069 87T891 5T654 -25Q473 -25 339 45T132 241T58 529Q58 695 133 819T342 1013T654 1083Q837 1083 970 1013T1175 814T1247 513Q1247 486 1246 464T1243 429H251ZM291 1194L541 1475H765L1014 1194H792L605 1411H697L512 1194H291Z" />
<glyph unicode="&#xeb;" horiz-adv-x="1305" d="M251 429V652H916L886 600Q886 608 886 616T886 632Q886 677 863 721T790 795T659 825Q579 825 524 792T440 694T411 538Q411 443 438 376T523 273T669 237Q724 237 763 246T827 269T864 301T880 336H1232Q1226
267 1184 203T1069 87T891 5T654 -25Q473 -25 339 45T132 241T58 529Q58 695 133 819T342 1013T654 1083Q837 1083 970 1013T1175 814T1247 513Q1247 486 1246 464T1243 429H251ZM394 1203Q321 1203 266 1241T211 1351Q211 1422 266 1460T394 1498Q467 1498 522
1460T578 1351Q578 1279 523 1241T394 1203ZM908 1203Q835 1203 780 1241T725 1351Q725 1422 780 1460T908 1498Q981 1498 1036 1460T1091 1351Q1091 1279 1036 1241T908 1203Z" />
<glyph unicode="&#xec;" horiz-adv-x="535" d="M91 0V1062H444V0H91ZM446 1187H221L-55 1468H209L446 1187Z" />
<glyph unicode="&#xed;" horiz-adv-x="535" d="M91 0V1062H444V0H91ZM88 1194L325 1475H589L313 1194H88Z" />
<glyph unicode="&#xee;" horiz-adv-x="535" d="M91 0V1062H444V0H91ZM-93 1194L157 1475H381L630 1194H408L221 1411H313L128 1194H-93Z" />
<glyph unicode="&#xef;" horiz-adv-x="535" d="M91 0V1062H444V0H91ZM63 1203Q-10 1203 -65 1241T-120 1351Q-120 1422 -65 1460T63 1498Q136 1498 191 1460T246 1351Q246 1279 191 1241T63 1203ZM469 1203Q396 1203 341 1241T286 1351Q286 1422 341 1460T469
1498Q542 1498 597 1460T652 1351Q652 1279 597 1241T469 1203Z" />
<glyph unicode="&#xf0;" horiz-adv-x="1352" d="M415 1235L788 1583L986 1471L614 1127L415 1235ZM911 530Q911 771 868 927T746 1176T562 1322T328 1407L484 1573Q642 1535 780 1458T1023 1257T1187 953T1246 530H911ZM652 -25Q476 -25 343 45T134 241T58 530Q58
694 133 818T342 1013T652 1083Q828 1083 961 1013T1170 819T1246 530Q1246 367 1171 242T962 46T652 -25ZM652 251Q724 251 776 285T858 383T887 530Q887 615 858 677T777 773T652 807Q581 807 528 773T446 677T417 530Q417 446 446 383T528 286T652 251Z" />
<glyph unicode="&#xf1;" horiz-adv-x="1311" d="M854 0V432Q854 467 854 498T854 554Q854 614 841 666T789 751T672 784Q605 784 559 755T490 671T467 544L385 615Q385 757 444 862T606 1025T835 1083Q968 1083 1050 1029T1171 879T1210 658Q1210 605 1210 538T1210
399V0H854ZM111 0V1062H467V0H111ZM1020 1457Q1020 1399 997 1342T928 1247T809 1209Q752 1209 715 1231T657 1272Q635 1294 616 1308T569 1323Q536 1323 520 1298T504 1228H327Q327 1287 351 1344T423 1440T546 1479Q597 1479 634 1457T693 1414Q716 1394 738
1380T785 1365Q813 1365 828 1389T844 1457H1020Z" />
<glyph unicode="&#xf2;" horiz-adv-x="1304" d="M652 -24Q476 -24 343 46T134 242T58 530Q58 694 133 818T342 1013T652 1083Q828 1083 961 1013T1170 819T1246 530Q1246 367 1171 242T962 47T652 -24ZM652 251Q724 251 776 286T856 383T884 530Q884 615 856 677T776
773T652 807Q581 807 529 773T448 677T420 530Q420 446 448 384T528 286T652 251ZM830 1187H605L329 1468H593L830 1187Z" />
<glyph unicode="&#xf3;" horiz-adv-x="1304" d="M652 -24Q476 -24 343 46T134 242T58 530Q58 694 133 818T342 1013T652 1083Q828 1083 961 1013T1170 819T1246 530Q1246 367 1171 242T962 47T652 -24ZM652 251Q724 251 776 286T856 383T884 530Q884 615 856 677T776
773T652 807Q581 807 529 773T448 677T420 530Q420 446 448 384T528 286T652 251ZM471 1194L708 1475H972L696 1194H471Z" />
<glyph unicode="&#xf4;" horiz-adv-x="1304" d="M652 -24Q476 -24 343 46T134 242T58 530Q58 694 133 818T342 1013T652 1083Q828 1083 961 1013T1170 819T1246 530Q1246 367 1171 242T962 47T652 -24ZM652 251Q724 251 776 286T856 383T884 530Q884 615 856 677T776
773T652 807Q581 807 529 773T448 677T420 530Q420 446 448 384T528 286T652 251ZM291 1194L541 1475H765L1014 1194H792L605 1411H697L512 1194H291Z" />
<glyph unicode="&#xf5;" horiz-adv-x="1304" d="M652 -24Q476 -24 343 46T134 242T58 530Q58 694 133 818T342 1013T652 1083Q828 1083 961 1013T1170 819T1246 530Q1246 367 1171 242T962 47T652 -24ZM652 251Q724 251 776 286T856 383T884 530Q884 615 856 677T776
773T652 807Q581 807 529 773T448 677T420 530Q420 446 448 384T528 286T652 251ZM998 1457Q998 1399 975 1342T906 1247T787 1209Q730 1209 693 1231T635 1272Q613 1294 594 1308T547 1323Q514 1323 498 1298T482 1228H305Q305 1287 329 1344T401 1440T524 1479Q575
1479 612 1457T671 1414Q694 1394 716 1380T763 1365Q791 1365 806 1389T822 1457H998Z" />
<glyph unicode="&#xf6;" horiz-adv-x="1304" d="M652 -24Q476 -24 343 46T134 242T58 530Q58 694 133 818T342 1013T652 1083Q828 1083 961 1013T1170 819T1246 530Q1246 367 1171 242T962 47T652 -24ZM652 251Q724 251 776 286T856 383T884 530Q884 615 856 677T776
773T652 807Q581 807 529 773T448 677T420 530Q420 446 448 384T528 286T652 251ZM394 1203Q321 1203 266 1241T211 1351Q211 1422 266 1460T394 1498Q467 1498 522 1460T578 1351Q578 1279 523 1241T394 1203ZM908 1203Q835 1203 780 1241T725 1351Q725 1422 780
1460T908 1498Q981 1498 1036 1460T1091 1351Q1091 1279 1036 1241T908 1203Z" />
<glyph unicode="&#xf7;" horiz-adv-x="1319" d="M288 412V631H1028V412H288ZM654 736Q595 736 557 773T518 867Q518 924 556 961T653 999Q712 999 750 962T789 867Q789 811 751 774T654 736ZM654 46Q595 46 557 83T518 178Q518 235 556 272T653 310Q712 310 750
273T789 178Q789 121 751 84T654 46Z" />
<glyph unicode="&#xf8;" horiz-adv-x="1304" d="M1123 1034L297 -63L176 28L1001 1125L1123 1034ZM652 -24Q476 -24 343 46T134 242T58 530Q58 694 133 818T342 1013T652 1083Q828 1083 961 1013T1170 819T1246 530Q1246 367 1171 242T962 47T652 -24ZM652 251Q724
251 776 286T856 383T884 530Q884 615 856 677T776 773T652 807Q581 807 529 773T448 677T420 530Q420 446 448 384T528 286T652 251Z" />
<glyph unicode="&#xf9;" horiz-adv-x="1290" d="M483 -21Q370 -21 298 15T185 112T128 250T111 409Q111 445 111 484T111 566V1062H467V625Q467 591 467 561T467 504Q467 443 479 391T526 308T629 276Q696 276 741 313T809 409T833 532L915 452Q915 347 885 261T799
111T664 14T483 -21ZM833 0V1062H1189V0H833ZM820 1187H595L319 1468H583L820 1187Z" />
<glyph unicode="&#xfa;" horiz-adv-x="1290" d="M483 -21Q370 -21 298 15T185 112T128 250T111 409Q111 445 111 484T111 566V1062H467V625Q467 591 467 561T467 504Q467 443 479 391T526 308T629 276Q696 276 741 313T809 409T833 532L915 452Q915 347 885 261T799
111T664 14T483 -21ZM833 0V1062H1189V0H833ZM461 1194L698 1475H962L686 1194H461Z" />
<glyph unicode="&#xfb;" horiz-adv-x="1290" d="M483 -21Q370 -21 298 15T185 112T128 250T111 409Q111 445 111 484T111 566V1062H467V625Q467 591 467 561T467 504Q467 443 479 391T526 308T629 276Q696 276 741 313T809 409T833 532L915 452Q915 347 885 261T799
111T664 14T483 -21ZM833 0V1062H1189V0H833ZM280 1194L530 1475H754L1003 1194H781L594 1411H686L501 1194H280Z" />
<glyph unicode="&#xfc;" horiz-adv-x="1290" d="M483 -21Q370 -21 298 15T185 112T128 250T111 409Q111 445 111 484T111 566V1062H467V625Q467 591 467 561T467 504Q467 443 479 391T526 308T629 276Q696 276 741 313T809 409T833 532L915 452Q915 347 885 261T799
111T664 14T483 -21ZM833 0V1062H1189V0H833ZM383 1203Q310 1203 255 1241T200 1351Q200 1422 255 1460T383 1498Q456 1498 511 1460T567 1351Q567 1279 512 1241T383 1203ZM897 1203Q824 1203 769 1241T714 1351Q714 1422 769 1460T897 1498Q970 1498 1025 1460T1080
1351Q1080 1279 1025 1241T897 1203Z" />
<glyph unicode="&#xfd;" horiz-adv-x="1151" d="M217 -463Q163 -463 122 -460T70 -452V-189Q83 -195 116 -198T188 -201Q233 -201 270 -184T336 -135T379 -58L393 -17L27 1062H399L608 205H568L769 1062H1135L779 -40Q734 -176 670 -270T498 -414T217 -463ZM400
1194L637 1475H901L625 1194H400Z" />
<glyph unicode="&#xfe;" horiz-adv-x="1344" d="M789 -24Q662 -24 558 45T392 231T330 494Q330 498 330 502T330 512L468 515Q468 512 468 509T468 503Q468 433 500 383T584 306T691 279Q780 279 849 341T918 537Q918 671 850 730T691 790Q636 790 585 765T501
691T468 571L330 580Q330 726 392 839T558 1017T789 1082Q918 1082 1031 1019T1215 835T1286 537Q1286 352 1217 228T1035 40T789 -24ZM111 -437V1563H468V-437H111Z" />
<glyph unicode="&#xff;" horiz-adv-x="1151" d="M217 -463Q163 -463 122 -460T70 -452V-189Q83 -195 116 -198T188 -201Q233 -201 270 -184T336 -135T379 -58L393 -17L27 1062H399L608 205H568L769 1062H1135L779 -40Q734 -176 670 -270T498 -414T217 -463ZM322
1203Q249 1203 194 1241T139 1351Q139 1422 194 1460T322 1498Q395 1498 450 1460T506 1351Q506 1279 451 1241T322 1203ZM836 1203Q763 1203 708 1241T653 1351Q653 1422 708 1460T836 1498Q909 1498 964 1460T1019 1351Q1019 1279 964 1241T836 1203Z" />
<glyph unicode="&#x2013;" horiz-adv-x="1000" d="M71 458V675H896V458H71Z" />
<glyph unicode="&#x2014;" horiz-adv-x="1222" d="M71 458V675H1118V458H71Z" />
<glyph unicode="&#x2018;" horiz-adv-x="549" d="M317 1283Q395 1283 444 1238T493 1112Q493 1031 439 979T286 927Q187 927 134 992T80 1162Q80 1261 129 1335T252 1460T397 1542L438 1459Q392 1440 344 1407T262 1335T228 1256Q232 1261 255 1272T317 1283Z" />
<glyph unicode="&#x2019;" horiz-adv-x="549" d="M232 1168Q154 1168 105 1213T56 1339Q56 1420 110 1472T263 1524Q362 1524 415 1459T469 1289Q469 1191 420 1117T297 991T152 909L111 992Q157 1012 205 1044T287 1116T321 1195Q317 1191 294 1180T232 1168Z" />
<glyph unicode="&#x201a;" horiz-adv-x="549" d="M232 -89Q154 -89 105 -44T56 82Q56 163 110 215T263 267Q362 267 415 202T469 32Q469 -66 420 -140T297 -266T152 -348L111 -265Q157 -245 205 -213T287 -141T321 -62Q317 -66 294 -77T232 -89Z" />
<glyph unicode="&#x201c;" horiz-adv-x="950" d="M517 1283Q595 1283 644 1238T693 1112Q693 1031 639 979T486 927Q387 927 334 992T280 1162Q280 1261 329 1335T452 1460T597 1542L638 1459Q592 1440 544 1407T462 1335T428 1256Q432 1261 455 1272T517 1283ZM746
1283Q824 1283 873 1238T922 1112Q922 1031 868 979T715 927Q616 927 563 992T509 1162Q509 1261 558 1335T681 1460T826 1542L867 1459Q821 1440 773 1407T691 1335T657 1256Q661 1261 684 1272T746 1283Z" />
<glyph unicode="&#x201d;" horiz-adv-x="950" d="M688 1166Q609 1166 561 1212T512 1338Q512 1419 565 1470T718 1522Q817 1522 870 1457T924 1287Q924 1189 875 1115T752 989T607 908L566 991Q613 1010 661 1042T742 1115T776 1194Q772 1189 749 1178T688 1166ZM203
1166Q125 1166 76 1212T27 1338Q27 1419 81 1470T233 1522Q333 1522 386 1457T440 1287Q440 1189 391 1115T268 989T123 908L82 991Q128 1010 176 1042T257 1115T292 1194Q288 1189 265 1178T203 1166Z" />
<glyph unicode="&#x201e;" horiz-adv-x="950" d="M688 -86Q609 -86 561 -40T512 86Q512 167 565 218T718 270Q817 270 870 205T924 35Q924 -63 875 -137T752 -263T607 -344L566 -261Q613 -242 661 -210T742 -137T776 -58Q772 -63 749 -74T688 -86ZM203 -86Q125
-86 76 -40T27 86Q27 167 81 218T233 270Q333 270 386 205T440 35Q440 -63 391 -137T268 -263T123 -344L82 -261Q128 -242 176 -210T257 -137T292 -58Q288 -63 265 -74T203 -86Z" />
<glyph unicode="&#x2022;" horiz-adv-x="797" d="M369 480Q303 480 248 512T161 599T129 720Q129 786 161 840T248 927T369 959Q435 959 489 927T576 841T609 720Q609 654 577 599T490 512T369 480Z" />
<glyph unicode="&#x2039;" horiz-adv-x="607" d="M575 885L235 565L575 251H370L33 565L370 885H575Z" />
<glyph unicode="&#x203a;" horiz-adv-x="607" d="M33 885H238L575 565L238 251H33L373 565L33 885Z" />
</font>
</defs>
</svg>
